<svg width="100" height="100" viewBox="0 0 100 100" fill="none" xmlns="http://www.w3.org/2000/svg">
<path d="M50.0042 0C36.425 0 34.7208 0.059376 29.3875 0.302084C24.0646 0.545834 20.4313 1.38854 17.2521 2.625C13.9635 3.90208 11.174 5.61042 8.39479 8.39062C5.61354 11.1698 3.90521 13.9594 2.62396 17.2469C1.38437 20.4271 0.540625 24.0615 0.301041 29.3823C0.0624995 34.7156 0 36.4208 0 50C0 63.5792 0.0604176 65.2781 0.302084 70.6115C0.546876 75.9344 1.38958 79.5677 2.625 82.7469C3.90313 86.0354 5.61146 88.825 8.39167 91.6042C11.1698 94.3854 13.9594 96.0979 17.2458 97.375C20.4271 98.6115 24.0615 99.4542 29.3833 99.6979C34.7167 99.9406 36.4198 100 49.9979 100C63.5781 100 65.2771 99.9406 70.6104 99.6979C75.9333 99.4542 79.5708 98.6115 82.7521 97.375C86.0396 96.0979 88.825 94.3854 91.6031 91.6042C94.3844 88.825 96.0927 86.0354 97.374 82.7479C98.6031 79.5677 99.4469 75.9333 99.6969 70.6125C99.9365 65.2792 99.999 63.5792 99.999 50C99.999 36.4208 99.9365 34.7167 99.6969 29.3833C99.4469 24.0604 98.6031 20.4271 97.374 17.2479C96.0927 13.9594 94.3844 11.1698 91.6031 8.39062C88.8219 5.60938 86.0406 3.90104 82.749 2.625C79.5615 1.38854 75.926 0.545834 70.6031 0.302084C65.2698 0.059376 63.5719 0 49.9885 0H50.0042ZM45.5188 9.01042C46.85 9.00833 48.3354 9.01042 50.0042 9.01042C63.3542 9.01042 64.9365 9.05833 70.2083 9.29792C75.0833 9.52083 77.7292 10.3354 79.4917 11.0198C81.825 11.926 83.4886 13.0094 85.2375 14.7594C86.9875 16.5094 88.0708 18.176 88.9792 20.5094C89.6635 22.2698 90.4792 24.9156 90.701 29.7906C90.9406 35.0615 90.9927 36.6448 90.9927 49.9885C90.9927 63.3323 90.9406 64.9156 90.701 70.1865C90.4781 75.0615 89.6635 77.7073 88.9792 79.4677C88.0729 81.801 86.9875 83.4625 85.2375 85.2115C83.4875 86.9615 81.826 88.0448 79.4917 88.951C77.7313 89.6385 75.0833 90.451 70.2083 90.674C64.9375 90.9135 63.3542 90.9656 50.0042 90.9656C36.6531 90.9656 35.0708 90.9135 29.8 90.674C24.925 90.449 22.2792 89.6344 20.5156 88.95C18.1823 88.0437 16.5156 86.9604 14.7656 85.2104C13.0156 83.4604 11.9323 81.7979 11.024 79.4635C10.3396 77.7031 9.52396 75.0573 9.30208 70.1823C9.0625 64.9115 9.01458 63.3281 9.01458 49.976C9.01458 36.624 9.0625 35.049 9.30208 29.7781C9.525 24.9031 10.3396 22.2573 11.024 20.4948C11.9302 18.1615 13.0156 16.4948 14.7656 14.7448C16.5156 12.9948 18.1823 11.9115 20.5156 11.0031C22.2781 10.3156 24.925 9.50313 29.8 9.27917C34.4125 9.07083 36.2 9.00833 45.5188 8.99792V9.01042ZM76.6938 17.3125C73.3813 17.3125 70.6938 19.9969 70.6938 23.3104C70.6938 26.6229 73.3813 29.3104 76.6938 29.3104C80.0063 29.3104 82.6938 26.6229 82.6938 23.3104C82.6938 19.9979 80.0063 17.3104 76.6938 17.3104V17.3125ZM50.0042 24.3229C35.824 24.3229 24.3271 35.8198 24.3271 50C24.3271 64.1802 35.824 75.6719 50.0042 75.6719C64.1844 75.6719 75.6771 64.1802 75.6771 50C75.6771 35.8198 64.1833 24.3229 50.0031 24.3229H50.0042ZM50.0042 33.3333C59.2083 33.3333 66.6708 40.7948 66.6708 50C66.6708 59.2042 59.2083 66.6667 50.0042 66.6667C40.799 66.6667 33.3375 59.2042 33.3375 50C33.3375 40.7948 40.799 33.3333 50.0042 33.3333V33.3333Z" fill="#A7756D"/>
</svg>
