<svg width="37" height="36" viewBox="0 0 37 36" fill="none" xmlns="http://www.w3.org/2000/svg">
<path d="M18.712 29.2094L18.4839 29.0714L18.2556 29.209L9.29135 34.6091L9.29056 34.6096C7.98495 35.3998 6.38711 34.2336 6.73086 32.7547C6.73087 32.7547 6.73089 32.7546 6.7309 32.7545L9.10691 22.5593L9.16739 22.2998L8.96601 22.1253L1.03864 15.2564L1.03848 15.2563C-0.114395 14.2582 0.507965 12.3702 2.01569 12.2503L2.01802 12.2501L12.451 11.3645L12.7162 11.342L12.8202 11.0971L16.9027 1.48487L16.9034 1.48315C17.4863 0.0944383 19.4806 0.0944383 20.0635 1.48315L20.0641 1.48454L24.1465 11.1184L24.2505 11.3636L24.5158 11.3861L34.9488 12.2717L34.9512 12.2719C36.4589 12.3918 37.0813 14.2798 35.9284 15.2779L35.9282 15.278L28.0009 22.1469L27.7995 22.3214L27.86 22.5809L30.236 32.7761C30.5799 34.2551 28.982 35.4214 27.6763 34.6312L27.6762 34.6311L18.712 29.2094Z" fill="white" stroke="black" stroke-width="0.883233"/>
</svg>
