<svg width="100" height="100" viewBox="0 0 100 100" fill="none" xmlns="http://www.w3.org/2000/svg">
<path d="M85.3948 14.5403C76.0153 5.15562 63.5093 0 50.1919 0C22.7695 0 0.430571 22.2381 0.406704 49.5367C0.406704 58.2799 2.69787 66.7855 7.04155 74.3169L0.000976562 100L26.3972 93.11C33.6764 97.0539 41.8626 99.1447 50.1919 99.1447H50.2158C77.6382 99.1447 99.9771 76.9066 100.001 49.5842C99.9771 36.3507 94.7981 23.9012 85.3948 14.5403ZM50.1919 90.7579C42.7456 90.7579 35.4664 88.7622 29.1179 85.0083L27.6143 84.1055L11.958 88.192L16.1346 72.9865L15.1561 71.4184C11.0034 64.861 8.83153 57.282 8.83153 49.5129C8.83153 26.8472 27.3995 8.36303 50.2158 8.36303C61.2659 8.36303 71.6478 12.6633 79.4759 20.4324C87.2802 28.2252 91.5762 38.5602 91.5762 49.5605C91.5523 72.2975 72.9843 90.7579 50.1919 90.7579ZM72.8888 59.9192C71.6478 59.3015 65.538 56.3079 64.3924 55.8803C63.2468 55.4764 62.4115 55.2625 61.6 56.498C60.7647 57.7334 58.3781 60.5369 57.6621 61.3447C56.9461 62.1763 56.2062 62.2713 54.9652 61.6536C53.7241 61.0359 49.7146 59.7292 44.9652 55.5001C41.2659 52.2214 38.7838 48.1587 38.0439 46.9233C37.3279 45.6878 37.9723 45.0226 38.5929 44.4048C39.1418 43.8584 39.8339 42.9556 40.4544 42.2428C41.075 41.5301 41.2898 41.0074 41.6955 40.1758C42.1012 39.3443 41.9103 38.6315 41.6 38.0138C41.2898 37.3961 38.8077 31.2901 37.7575 28.8192C36.7552 26.3958 35.7289 26.7284 34.9652 26.7047C34.2492 26.6572 33.4139 26.6572 32.5785 26.6572C31.7432 26.6572 30.4067 26.966 29.2611 28.2015C28.1155 29.4369 24.9174 32.4305 24.9174 38.5365C24.9174 44.6424 29.3805 50.5108 30.001 51.3424C30.6215 52.1739 38.7599 64.6709 51.242 70.0404C54.2015 71.3234 56.5165 72.0836 58.3303 72.6538C61.3136 73.6042 64.0105 73.4616 66.1585 73.1528C68.5451 72.7964 73.5093 70.1592 74.5595 67.2606C75.5857 64.3621 75.5857 61.8912 75.2754 61.3685C74.9652 60.8458 74.1299 60.537 72.8888 59.9192Z" fill="#A7756D"/>
</svg>
